<svg width="207" height="139" viewBox="0 0 207 139" fill="none" xmlns="http://www.w3.org/2000/svg">
<g clip-path="url(#clip0)">
<path d="M53.4327 92.077C41.0868 74.5318 36.7869 52.2052 36.3084 31.1019C36.2536 28.6916 36.2638 26.2294 37.012 23.9361C38.3211 19.9229 43.259 16.1086 46.9305 14.0321C56.1448 8.82048 72.7137 3.70281 87.2391 2.35003C92.8884 1.82399 98.2819 1.51547 103.557 1.43713C108.833 1.51547 114.226 1.82399 119.875 2.35003C130.322 3.22643 140.585 5.63178 150.336 9.48933C156.996 12.1648 165.676 15.7959 169.151 22.517C171.112 26.3132 171.204 30.7964 170.757 35.0445C168.195 59.3819 163.76 85.5866 144.244 102.541" fill="white"/>
<path d="M58.0336 32.8036C56.862 32.3015 55.7223 31.728 54.6209 31.0862C60.7541 22.3188 83.9281 20.7876 93.3254 20.3429C103.846 19.8446 116.219 19.938 128.524 21.6999C133.443 22.4037 151.627 26.9785 152.725 33.2694C142.963 37.0899 132.705 39.4941 122.264 40.4093C116.829 40.9154 111.39 41.1715 105.946 41.1775C100.507 41.1635 95.0678 40.9074 89.628 40.4093C79.1861 39.4951 68.9283 37.0917 59.1657 33.2718C58.8275 33.1416 58.4435 32.9813 58.0336 32.8036Z" fill="#4B321F"/>
<path d="M173.585 72.3969C190.979 78.8258 216.138 93.1688 200.863 111.741C187.126 128.445 157.604 133.846 137.372 135.828C131.321 136.421 111.288 137.563 103.506 137.644C95.7257 137.563 75.6912 136.421 69.6404 135.828C49.4061 133.846 19.884 128.445 6.14649 111.741C-11.8675 89.8384 26.3561 73.8178 41.7543 69.7233" fill="white"/>
<path d="M188.186 80.7991C196.858 85.921 208.248 95.1946 202.598 106.498C200.171 111.354 195.864 115.295 191.466 118.362C187.024 121.399 182.235 123.894 177.202 125.794C166.904 129.789 155.955 132.061 145.029 133.507C136.005 134.701 126.913 135.194 117.824 135.657C113.264 135.89 108.698 136.118 104.132 136.191C99.8456 136.259 95.5343 135.968 91.2549 135.76C82.1988 135.32 73.1181 134.876 64.1133 133.777C53.1914 132.446 42.2526 130.319 31.8839 126.571C22.3096 123.11 12.1251 117.888 6.1164 109.337C3.78468 106.018 2.28357 101.995 3.08408 97.964C3.85089 94.1003 6.23317 90.8259 8.98561 88.1071C15.486 81.6861 24.2104 77.4566 32.6507 74.2274C34.5033 73.5184 36.3742 72.8614 38.2633 72.2564C40.0275 71.6918 39.2733 68.8983 37.4953 69.4671C28.5452 72.3323 19.5909 76.2328 11.9866 81.8199C5.13111 86.861 -1.55889 94.3353 0.321409 103.51C1.33078 108.433 4.63034 112.642 8.17185 116.049C12.1899 119.813 16.7514 122.95 21.7029 125.354C32.062 130.542 43.4799 133.438 54.8562 135.34C64.2472 136.81 73.7106 137.772 83.2052 138.221C92.4948 138.759 101.749 139.245 111.052 138.863C120.488 138.473 129.973 138.069 139.369 137.07C150.551 135.882 161.746 133.99 172.468 130.53C182.965 127.143 193.66 122.134 201.079 113.706C205.063 109.182 207.874 103.568 206.751 97.4133C205.728 91.7967 201.647 87.1532 197.371 83.642C194.936 81.6649 192.353 79.8786 189.643 78.299C188.039 77.3512 186.583 79.8506 188.186 80.7967V80.7991Z" fill="#211715"/>
<path d="M196.505 57.0035C194.847 67.4775 185.923 76.1834 177.45 81.2716C172.033 84.5255 153.791 94.1522 152.267 94.7138C152.267 94.7138 151.934 94.8343 151.384 95.0428C156.341 88.8032 160.162 81.503 163.055 73.7394L163.586 73.5177C169.687 70.9868 177.166 66.6224 179.825 60.029C182.302 53.8906 175.432 46.6386 168.818 51.7635C169.6 47.1779 170.142 42.614 170.485 38.1857L170.963 38.0598C176.747 36.5359 183.444 36.5407 188.568 39.0805C192.984 41.2703 196.232 45.3443 196.72 51.9467C196.844 53.635 196.772 55.3319 196.505 57.0035Z" fill="white"/>
<path d="M50.8193 22.9214C50.2435 23.356 49.7801 23.9223 49.4678 24.5731C49.1555 25.2238 49.0035 25.9399 49.0245 26.6616C49.2243 28.0573 49.9315 29.3301 51.0107 30.236C53.1324 32.2197 55.8824 33.5008 58.5482 34.5746C67.1843 37.9847 76.2198 40.2773 85.4358 41.3969C95.0927 42.5857 104.835 42.9234 114.551 42.4062C124.046 41.9392 133.498 40.7256 142.67 38.1671C145.198 37.4613 147.699 36.6633 150.173 35.7731C152.08 35.1629 153.934 34.397 155.717 33.4833C157.224 32.7299 158.424 31.477 159.113 29.9377C159.859 28.0421 159.22 26.0096 158.224 24.3398C157.272 22.7436 154.773 24.1964 155.73 25.7999C156.132 26.4188 156.409 27.1111 156.544 27.8372C156.618 28.3185 156.522 28.8105 156.272 29.2285C155.668 30.1142 154.82 30.8051 153.831 31.217C152.395 31.9008 150.916 32.4929 149.405 32.9898C147.373 33.7177 145.321 34.3856 143.25 34.9933C134.859 37.3822 126.231 38.8407 117.521 39.3427C99.7993 40.5087 81.556 39.4223 64.6279 33.7279C61.1369 32.5547 58.0366 31.5105 54.9531 29.5955C54.3693 29.2451 53.8149 28.8477 53.2955 28.4072C52.8273 28.0325 52.4281 27.5787 52.1158 27.0665C52.0601 26.971 52.0095 26.8726 51.9641 26.7718C52.0881 27.0574 51.9214 26.579 51.9039 26.5193C51.807 26.1277 51.9292 26.8164 51.8967 26.4181C51.8951 26.3365 51.8977 26.2548 51.9045 26.1735C51.8805 26.3342 51.8793 26.3599 51.9009 26.2506C51.9286 26.147 51.9527 26.0439 51.9906 25.9421C51.8931 26.2048 52.1254 25.7227 52.1628 25.6679C52.371 25.4103 52.6056 25.1753 52.8627 24.9665C53.1306 24.6937 53.2806 24.3265 53.2806 23.9439C53.2806 23.5614 53.1306 23.1942 52.8627 22.9214C52.5881 22.6573 52.2221 22.5099 51.8413 22.5099C51.4606 22.5099 51.0946 22.6573 50.8199 22.9214H50.8193Z" fill="#211715"/>
<path d="M54.6799 91.3503C49.0638 83.1704 44.8885 74.0881 42.3351 64.4971C39.7585 54.8927 38.2673 45.0291 37.8895 35.0915C37.7016 32.5118 37.6767 29.9228 37.8149 27.34C37.9431 25.1292 38.7692 23.0162 40.1743 21.3058C42.8943 18.017 46.5959 15.7115 50.3781 13.8484C58.9581 9.62552 68.4126 6.93261 77.7804 5.15622C83.0338 4.208 88.3404 3.58316 93.6703 3.28523C99.2022 2.90567 104.751 2.84531 110.29 3.10446C121.429 3.66003 132.488 5.02968 143.146 8.43543C147.627 9.85022 152.003 11.5774 156.243 13.6043C160.006 15.4217 163.79 17.6416 166.432 20.9557C169.498 24.8044 169.803 29.8057 169.36 34.5221C168.946 38.9462 168.391 43.3679 167.741 47.763C166.421 56.6866 164.564 65.5812 161.456 74.066C158.417 82.3634 154.06 90.2403 148.078 96.7831C146.548 98.4522 144.926 100.034 143.218 101.52C141.814 102.744 143.865 104.783 145.262 103.565C152.265 97.3462 157.859 89.6994 161.668 81.1378C165.515 72.6819 167.911 63.6632 169.552 54.5372C170.386 49.9022 171.033 45.2346 171.588 40.5575C172.179 35.5922 173.004 30.4704 171.8 25.5311C169.525 16.1948 159.918 11.8267 151.829 8.53847C141.326 4.34573 130.257 1.74413 118.988 0.819499C113.26 0.229297 107.505 -0.0352558 101.748 0.0271136C96.0254 0.168116 90.2732 0.497724 84.5895 1.18948C74.2979 2.42678 64.2111 5.00074 54.5835 8.84639C50.596 10.4516 46.5977 12.2473 43.0995 14.7769C41.104 16.159 39.3129 17.8154 37.7788 19.6975C36.2064 21.699 35.2397 24.1096 34.9933 26.644C34.7797 29.2874 34.7747 31.9436 34.9782 34.5878C35.0898 37.1808 35.2629 39.7701 35.4976 42.3555C35.9564 47.4856 36.6982 52.5864 37.7198 57.6344C39.7729 67.6606 43.1073 77.4995 48.1554 86.426C49.3945 88.6178 50.7387 90.7449 52.188 92.8073C52.3882 93.1308 52.7049 93.365 53.0726 93.4616C53.4403 93.5581 53.831 93.5096 54.164 93.3261C54.4924 93.1302 54.7307 92.813 54.8277 92.4428C54.9246 92.0727 54.8724 91.6792 54.6823 91.3472L54.6799 91.3503Z" fill="#211715"/>
<path d="M55.9414 31.7129C55.9799 31.6605 56.0185 31.6074 56.0576 31.555C56.1936 31.3742 55.9294 31.7129 56.075 31.5369C56.1599 31.4345 56.2448 31.3321 56.3326 31.232C56.5413 30.9938 56.7598 30.7648 56.9881 30.5451C57.3908 30.1489 57.8228 29.7837 58.2804 29.4526C59.4293 28.6364 60.6535 27.9318 61.9362 27.3484C64.8436 26.071 67.8752 25.0983 70.9826 24.4458C77.2233 23.1113 83.5616 22.2851 89.9355 21.9753C98.6219 21.4072 107.335 21.378 116.025 21.8879C120.461 22.089 124.881 22.5548 129.262 23.2829C131.794 23.7615 134.299 24.3772 136.764 25.1274C139.723 25.968 142.604 27.0587 145.378 28.3879C146.635 28.9982 147.837 29.7153 148.971 30.5312C149.043 30.5776 149.111 30.6302 149.174 30.6885C149.278 30.7741 149.382 30.8596 149.483 30.9482C149.711 31.1453 149.931 31.3501 150.141 31.5659C150.324 31.7539 150.497 31.9501 150.662 32.1546C150.765 32.2829 150.621 32.1046 150.612 32.0943C150.656 32.1546 150.703 32.2148 150.743 32.2793C150.812 32.389 150.884 32.495 150.949 32.6071C151.014 32.7192 151.066 32.8283 151.126 32.9379C151.257 33.179 151.061 32.721 151.145 32.9759C151.222 33.1986 151.285 33.4263 151.331 33.6574C151.436 34.0253 151.681 34.3373 152.014 34.5262C152.346 34.715 152.739 34.7657 153.109 34.6673C153.474 34.5584 153.782 34.3123 153.97 33.9807C154.158 33.6491 154.211 33.2575 154.117 32.8879C153.641 30.3649 151.319 28.5373 149.277 27.2502C146.519 25.6031 143.582 24.278 140.523 23.301C137.689 22.3249 134.801 21.5125 131.874 20.8678C128.235 20.1342 124.554 19.6311 120.852 19.3613C111.166 18.5331 101.433 18.4047 91.7292 18.9769C85.2282 19.258 78.7555 20.001 72.3598 21.2004C68.9765 21.8259 65.6584 22.7637 62.4478 24.0018C59.6791 25.1129 56.9273 26.5103 54.796 28.6416C54.3044 29.142 53.8525 29.6799 53.4442 30.2504C53.2536 30.5822 53.2011 30.9758 53.2981 31.346C53.3951 31.7162 53.6337 32.0333 53.9624 32.2287C54.2952 32.4138 54.6865 32.4631 55.0547 32.3665C55.423 32.2698 55.7397 32.0346 55.939 31.7099L55.9414 31.7129Z" fill="#211715"/>
<path d="M77.5511 112.976C85.7897 116.046 94.8554 117.103 103.597 117.117C105.456 117.12 105.459 114.228 103.597 114.225C95.0883 114.211 86.3362 113.174 78.3179 110.187C77.9486 110.088 77.5553 110.139 77.2228 110.328C76.8904 110.517 76.6455 110.829 76.5411 111.197C76.4476 111.567 76.5003 111.958 76.6883 112.29C76.8763 112.621 77.185 112.867 77.5498 112.976H77.5511Z" fill="#211715"/>
<path d="M171.347 39.4553C176.912 38.0055 183.425 37.8651 188.495 40.6749C191.013 42.0315 192.992 44.2094 194.103 46.8471C195.422 50.2582 195.715 53.9809 194.946 57.5566C193.35 65.4829 187.668 72.0991 181.383 76.8703C176.602 80.4996 171.132 83.2197 165.861 86.0499C161.313 88.4928 156.773 91.02 152.1 93.2206C151.998 93.2688 151.893 93.314 151.792 93.3634C151.483 93.5122 152.147 93.2242 151.885 93.323C151.521 93.4339 151.214 93.6802 151.026 94.0111C150.839 94.342 150.785 94.7324 150.876 95.1018C150.98 95.4702 151.225 95.7827 151.558 95.9718C151.89 96.1609 152.284 96.2114 152.653 96.1123C154.262 95.4344 155.832 94.6651 157.354 93.8081C160.127 92.3772 162.89 90.9242 165.641 89.4491C168.502 87.9209 171.359 86.3801 174.192 84.8038C176.807 83.4034 179.339 81.8526 181.775 80.1592C188.697 75.1813 195.024 68.3614 197.346 59.9579C199.364 52.6541 198.054 44.0427 191.697 39.304C186.415 35.3674 179.157 34.9932 172.899 36.1508C172.121 36.2948 171.349 36.4689 170.584 36.6684C168.786 37.1372 169.549 39.9277 171.352 39.4577L171.347 39.4553Z" fill="#211715"/>
<path d="M169.548 53.0132C171.36 51.6424 173.586 50.9567 175.612 51.9816C176.466 52.43 177.203 53.0723 177.765 53.857C178.326 54.6418 178.697 55.5472 178.846 56.5009C179.193 58.8425 177.9 61.0877 176.518 62.9033C174.911 64.9285 172.984 66.6768 170.814 68.0788C168.414 69.6723 165.865 71.0265 163.202 72.1221C162.839 72.2346 162.533 72.4812 162.346 72.8116C162.158 73.1421 162.104 73.5316 162.193 73.9009C162.297 74.2695 162.541 74.5822 162.874 74.7713C163.207 74.9604 163.6 75.0105 163.97 74.9108C169.603 72.5608 175.204 69.4039 178.948 64.4495C180.705 62.1242 182.09 59.3029 181.711 56.319C181.545 54.9658 181.076 53.6676 180.339 52.5208C179.603 51.3741 178.618 50.4084 177.457 49.6955C174.447 47.8956 170.814 48.453 168.09 50.5132C167.768 50.715 167.535 51.0321 167.439 51.3998C167.343 51.7675 167.39 52.1581 167.571 52.492C167.767 52.8212 168.083 53.0603 168.453 53.1574C168.823 53.2545 169.217 53.2018 169.548 53.0108V53.0132Z" fill="#211715"/>
<path d="M105.756 120.858C97.3062 119.551 85.7572 116.058 77.4108 116.795C68.6328 117.569 61.9055 123.807 52.8278 123.947C43.5587 124.089 32.437 119.036 30.1023 109.656C27.5274 99.3127 40.4458 95.0464 48.2914 95.8569C57.9072 96.853 64.3305 101.214 72.0353 106.65C73.7032 107.889 76.2197 107.916 78.1391 108.031C86.9868 108.555 96.1079 108.992 104.873 109.026C114.342 109.064 124.649 109.067 134.089 109.126C141.257 109.171 155.047 107.274 152.612 118.653C150.566 128.23 140.394 127.399 132.225 126.108C122.951 124.644 105.904 120.881 105.756 120.858Z" fill="#CFCFCF"/>
<path d="M106.14 119.464C100.914 118.646 95.7757 117.348 90.5693 116.415C85.4791 115.503 80.1687 114.734 75.0267 115.673C70.0022 116.59 65.5169 119.143 60.7553 120.861C58.3747 121.781 55.8674 122.329 53.3208 122.488C51.1704 122.566 49.019 122.368 46.9191 121.898C42.7618 120.983 38.6732 119.146 35.5891 116.159C34.1456 114.79 32.985 113.15 32.1734 111.332C31.746 110.351 31.4488 109.318 31.2892 108.259C31.2397 107.865 31.2144 107.468 31.2134 107.071C31.2137 106.683 31.2398 106.296 31.2916 105.911C31.5531 104.384 32.2766 102.973 33.3645 101.87C34.5468 100.68 35.9454 99.7283 37.4851 99.065C40.6475 97.6479 44.1073 97.0239 47.5649 97.247C52.5179 97.5543 57.3438 99.2681 61.6678 101.639C63.9375 102.884 66.1085 104.301 68.2422 105.764C69.3292 106.509 70.385 107.311 71.4882 108.031C72.6396 108.717 73.9301 109.135 75.2645 109.255C78.1734 109.637 81.1594 109.661 84.0876 109.815C87.2519 109.981 90.4168 110.122 93.5824 110.237C99.8745 110.461 106.166 110.481 112.461 110.498C118.7 110.514 124.938 110.534 131.176 110.558C134.75 110.576 138.339 110.393 141.909 110.507C143.453 110.516 144.992 110.688 146.5 111.02C146.855 111.103 147.208 111.197 147.556 111.307C147.725 111.36 147.893 111.417 148.059 111.478C148.141 111.508 148.222 111.538 148.304 111.571C148.557 111.668 148.226 111.532 148.374 111.6C148.66 111.729 148.94 111.873 149.211 112.031C149.352 112.114 149.487 112.204 149.624 112.293C149.958 112.513 149.61 112.24 149.902 112.507C150.123 112.709 150.329 112.917 150.528 113.139C150.747 113.383 150.494 113.036 150.661 113.32C150.752 113.477 150.855 113.626 150.94 113.786C150.976 113.853 151.166 114.282 151.054 114.003C151.118 114.162 151.175 114.325 151.222 114.488C151.27 114.652 151.316 114.832 151.352 115.006C151.371 115.096 151.387 115.187 151.402 115.277C151.447 115.541 151.402 115.222 151.415 115.388C151.571 117.23 151.22 119.08 150.399 120.735C148.804 123.901 145.568 125.115 142.165 125.368C138.253 125.658 134.413 125.035 130.599 124.382C122.95 123.07 115.35 121.451 107.766 119.813C107.224 119.696 106.682 119.56 106.141 119.462C105.772 119.371 105.382 119.424 105.051 119.612C104.721 119.8 104.475 120.108 104.364 120.472C104.266 120.842 104.316 121.235 104.505 121.568C104.694 121.901 105.005 122.146 105.373 122.251C107.509 122.638 109.628 123.169 111.753 123.617C116.08 124.531 120.412 125.421 124.754 126.247C128.893 127.116 133.076 127.766 137.284 128.195C141.204 128.519 145.581 128.425 149.049 126.327C152.626 124.157 154.602 119.745 154.32 115.61C154.245 113.893 153.587 112.253 152.454 110.961C151.349 109.828 149.97 109.001 148.451 108.56C145.221 107.499 141.65 107.546 138.29 107.611C133.415 107.705 128.54 107.652 123.659 107.637C110.604 107.596 97.5675 107.622 84.5251 106.944C81.5717 106.791 78.5418 106.794 75.6081 106.407C74.3477 106.235 73.1534 105.739 72.1425 104.966C70.9989 104.163 69.8553 103.364 68.6985 102.584C64.3011 99.6242 59.6472 96.9867 54.5101 95.5604C50.2153 94.2741 45.6763 94.03 41.2686 94.8482C37.5669 95.596 33.6932 97.1982 31.1105 100.049C28.2521 103.205 27.7098 107.408 29.1068 111.369C30.6657 115.791 34.0375 119.255 38.0472 121.571C42.1497 123.904 46.7544 125.21 51.4694 125.378C56.9375 125.585 61.8785 123.607 66.8103 121.492C69.1609 120.423 71.5903 119.536 74.0769 118.841C76.5213 118.249 79.0406 118.027 81.5506 118.185C87.0681 118.443 92.505 119.701 97.8907 120.828C100.375 121.348 102.86 121.863 105.368 122.255C105.737 122.345 106.126 122.291 106.457 122.103C106.787 121.915 107.033 121.608 107.145 121.245C107.245 120.876 107.195 120.482 107.007 120.148C106.819 119.815 106.508 119.569 106.14 119.464Z" fill="#211715"/>
<path d="M38.1748 114.042C39.4823 115.625 41.0707 116.953 42.86 117.959C44.746 118.944 46.8218 119.511 48.9463 119.622C49.3294 119.622 49.6968 119.47 49.9677 119.199C50.2386 118.928 50.3908 118.56 50.3908 118.176C50.3908 117.793 50.2386 117.425 49.9677 117.154C49.6968 116.882 49.3294 116.73 48.9463 116.73C47.2879 116.623 45.6705 116.168 44.1986 115.396C43.8203 115.187 43.4529 114.959 43.0977 114.713C43.0227 114.66 42.9476 114.607 42.8726 114.553C42.881 114.559 42.5759 114.331 42.686 114.416C42.8064 114.509 42.5277 114.289 42.5054 114.269C42.4144 114.194 42.3245 114.119 42.2358 114.043C41.5122 113.412 40.8381 112.727 40.2195 111.994C39.9469 111.726 39.5801 111.575 39.1981 111.575C38.816 111.575 38.4492 111.726 38.1766 111.994C37.9126 112.269 37.7652 112.635 37.7652 113.016C37.7652 113.398 37.9126 113.764 38.1766 114.039L38.1748 114.042Z" fill="#211715"/>
<path d="M53.6639 119.52C54.4437 119.546 55.223 119.455 55.9757 119.249C56.6302 119.096 57.272 118.892 57.8951 118.639C58.2521 118.527 58.5579 118.292 58.7582 117.976C58.9515 117.645 59.0055 117.251 58.9084 116.88C58.8112 116.509 58.5708 116.191 58.24 115.998C58.0747 115.898 57.8904 115.833 57.6988 115.808C57.5073 115.783 57.3126 115.798 57.1271 115.852C56.2121 116.23 55.2538 116.493 54.2742 116.635L54.6582 116.584C54.33 116.631 53.9979 116.645 53.6669 116.626C53.3806 116.625 53.1007 116.71 52.8625 116.868C52.6243 117.027 52.4386 117.253 52.3289 117.518C52.2193 117.783 52.1907 118.074 52.2467 118.355C52.3028 118.636 52.4409 118.894 52.6437 119.096C52.9237 119.354 53.2865 119.504 53.6669 119.518L53.6639 119.52Z" fill="#211715"/>
<path d="M133.25 122.632C135.497 123.046 137.775 123.265 140.06 123.287C141.975 123.267 144.04 123.041 145.708 122.021C147.293 121.054 145.843 118.551 144.25 119.524C144.098 119.617 143.941 119.698 143.784 119.782C143.631 119.851 143.619 119.859 143.749 119.803C143.66 119.838 143.571 119.871 143.481 119.903C143.099 120.033 142.708 120.136 142.311 120.21C141.507 120.344 140.692 120.406 139.877 120.395C137.913 120.372 135.954 120.188 134.019 119.845C133.65 119.754 133.26 119.808 132.93 119.996C132.599 120.184 132.353 120.491 132.242 120.855C132.143 121.224 132.193 121.618 132.382 121.951C132.571 122.284 132.883 122.529 133.251 122.633L133.25 122.632Z" fill="#211715"/>
</g>
<defs>
<clipPath id="clip0">
<rect width="207" height="139" fill="white"/>
</clipPath>
</defs>
</svg>
