<svg width="46" height="47" viewBox="0 0 46 47" fill="none" xmlns="http://www.w3.org/2000/svg">
<g clip-path="url(#clip0)">
<path d="M39.1164 0.218933C37.2589 0.218933 35.7656 1.67856 35.6928 3.50309C35.6564 3.68555 35.62 4.01396 35.5471 4.19642C35.4379 4.45185 35.1829 4.6708 35.1101 4.70729L26.8789 10.0349C26.6968 10.1079 26.2233 10.2904 25.7134 10.3269C25.3128 10.3633 24.985 10.2539 24.8029 10.1444C23.8923 9.56055 22.7997 9.23213 21.7071 9.23213C18.6113 9.23213 16.0618 11.75 16.0618 14.8882C16.0618 17.9899 18.5748 20.5442 21.7071 20.5442C23.0182 20.5442 24.2565 20.1064 25.2763 19.2671C25.422 19.1941 25.5677 19.1576 25.7862 19.1211C26.0776 19.1211 26.3326 19.1576 26.5511 19.2306L30.0475 21.0551C30.0475 21.0551 30.3753 21.2741 30.5938 21.639C30.7395 21.8944 30.7759 22.2228 30.7759 22.2228C30.8124 24.2298 32.4513 25.8719 34.4545 25.8719C36.4941 25.8719 38.133 24.1933 38.133 22.1863C38.133 20.1428 36.4576 18.5008 34.4545 18.5008C33.6896 18.5008 32.9612 18.7197 32.3785 19.1576C32.3056 19.1941 32.0871 19.3036 31.905 19.3036C31.5772 19.3401 31.2858 19.2671 31.1766 19.2306L28.0443 17.5885C27.8622 17.479 27.6073 17.2601 27.4252 16.9317C27.2431 16.6397 27.2431 16.3843 27.2795 16.2383C27.2795 16.2019 27.3159 16.1654 27.3159 16.1289C27.4252 15.7275 27.4616 15.2896 27.4616 14.8517C27.4616 14.5233 27.4252 14.1949 27.3888 13.9029C27.3888 13.7205 27.3523 13.2096 27.6801 12.7352C27.8258 12.5163 28.0808 12.2973 28.2993 12.1514L36.2755 6.93322C36.3848 6.86024 36.7854 6.71427 37.0404 6.67778C37.2953 6.67778 37.5503 6.75077 37.6596 6.78726C38.0966 7.0062 38.6065 7.11567 39.1164 7.11567C41.0103 7.11567 42.54 5.58306 42.54 3.68555C42.54 1.78803 41.0103 0.218933 39.1164 0.218933Z" fill="white"/>
<path d="M27.9715 24.7042C27.8622 24.5947 27.7166 24.5582 27.5709 24.6312C25.7862 25.6529 23.7831 26.2003 21.7435 26.2003C15.3333 26.2003 10.0887 20.9821 10.0887 14.5233C10.0887 8.10093 15.2969 2.84627 21.7435 2.84627C24.2565 2.84627 26.6968 3.64907 28.7364 5.18168C28.8456 5.25466 28.9913 5.25466 29.1006 5.18168L31.1037 3.86801C31.1766 3.83152 31.2494 3.72205 31.2494 3.61258C31.2494 3.50311 31.213 3.43012 31.1402 3.35714C28.4814 1.24068 25.1671 0 21.7435 0C13.7308 0 7.24783 6.53183 7.24783 14.5233C7.24783 22.5512 13.7672 29.0466 21.7435 29.0466C24.4022 29.0466 27.0246 28.3168 29.2827 26.8936C29.3555 26.8571 29.3919 26.7842 29.4284 26.6747C29.4284 26.6017 29.4284 26.4922 29.3555 26.4193L27.9715 24.7042Z" fill="white"/>
<path d="M11.1813 33.7174C11.1813 33.5714 11.1085 33.4255 10.9992 33.3525C10.8899 33.243 10.7078 33.2065 10.4893 33.2065C10.3072 33.2065 10.1615 33.243 10.0887 33.3525C10.0158 33.4255 9.97942 33.5349 9.97942 33.6079C9.97942 33.7539 10.1251 33.8998 10.3801 34.0093C10.635 34.1188 10.9264 34.2283 11.2542 34.3742C11.582 34.5202 11.8733 34.7026 12.1283 34.9581C12.3832 35.2135 12.5289 35.5419 12.5289 35.9798C12.5289 36.4542 12.3468 36.8921 11.9826 37.184C11.6184 37.5124 11.0356 37.6584 10.1979 37.6949C9.4331 37.6949 8.81394 37.5124 8.4133 37.184C8.01267 36.8556 7.79414 36.4177 7.79414 35.8703H9.46952C9.46952 36.0528 9.54236 36.1988 9.65163 36.3082C9.76089 36.4177 9.97942 36.4907 10.2344 36.4907C10.4529 36.4907 10.5986 36.4542 10.7078 36.3812C10.8171 36.3082 10.8535 36.1988 10.8535 36.0528C10.8535 35.8703 10.7078 35.7244 10.4529 35.6149C10.1979 35.5054 9.90658 35.3595 9.57878 35.2135C9.25099 35.0675 8.95962 34.8851 8.70467 34.6661C8.44973 34.4472 8.30404 34.1188 8.30404 33.6809C8.30404 33.243 8.44973 32.8781 8.77752 32.5497C9.10531 32.2213 9.65163 32.0753 10.4165 32.0388C11.2177 32.0753 11.8005 32.2578 12.1647 32.6227C12.5289 32.9876 12.711 33.3525 12.6746 33.7904H11.1813V33.7174Z" fill="white"/>
<path d="M15.6611 34.4107L15.4426 36.0163C15.4426 36.1623 15.479 36.2717 15.5883 36.3082C15.6975 36.3447 15.8432 36.3447 16.0618 36.3447L15.8797 37.4759C15.8432 37.4759 15.7704 37.4759 15.6247 37.5124C15.479 37.5124 15.2605 37.5489 15.042 37.5489C14.6413 37.5489 14.35 37.4394 14.1679 37.257C13.9858 37.0745 13.9129 36.8556 13.9129 36.5637C13.9129 36.3812 13.9493 36.0893 14.0222 35.6149C14.095 35.177 14.1679 34.7756 14.2043 34.3742H13.658L13.8036 33.4984H14.35L14.5321 32.2943H15.9889L15.8068 33.4984H16.3896L16.2439 34.3742H15.6611V34.4107Z" fill="white"/>
<path d="M21.0515 34.6297C21.0515 34.9581 20.9786 35.396 20.9058 35.9068C20.7965 36.4177 20.7601 36.7826 20.7601 37.038C20.7601 37.111 20.7965 37.184 20.7965 37.257C20.8329 37.33 20.8694 37.3665 20.9058 37.4029V37.4759H19.3761L19.3397 37.111C19.2304 37.2205 19.0483 37.2935 18.7934 37.4394C18.5384 37.5489 18.247 37.6219 17.9557 37.6219C17.5186 37.6219 17.2272 37.5124 17.0087 37.2935C16.7902 37.0745 16.6809 36.8191 16.6809 36.5272C16.6809 36.3447 16.7173 36.1623 16.7538 35.9798C16.8266 35.8338 16.8995 35.6879 16.9723 35.6149C17.1544 35.4324 17.3729 35.323 17.6279 35.25C17.8828 35.177 18.1378 35.1405 18.3927 35.104C18.6477 35.0675 18.8662 35.0675 19.0847 35.0311C19.2668 34.9946 19.4125 34.9581 19.4854 34.9216C19.5218 34.8851 19.5218 34.8486 19.5582 34.8486C19.5582 34.8121 19.5946 34.7756 19.5946 34.7026C19.5946 34.5932 19.5582 34.5202 19.4854 34.4837C19.4125 34.4107 19.2668 34.3742 19.0847 34.3742C18.9026 34.3742 18.7569 34.4472 18.6841 34.5202C18.6112 34.5932 18.5748 34.7026 18.5748 34.7756H17.0816C17.118 34.4107 17.3001 34.0823 17.6279 33.8269C17.9557 33.5714 18.502 33.4255 19.2304 33.4255C19.9588 33.462 20.4687 33.5714 20.7237 33.8634C20.9422 34.0823 21.0879 34.3742 21.0515 34.6297ZM18.6112 36.7096C18.7569 36.7096 18.9026 36.6731 18.9755 36.6366C19.0847 36.5637 19.1211 36.5272 19.1576 36.4907C19.2304 36.4177 19.2668 36.3447 19.3397 36.1988C19.3761 36.0528 19.4125 35.9068 19.4125 35.7609C19.1576 35.8703 18.939 35.9068 18.7569 35.9433C18.5384 35.9798 18.3927 36.0163 18.3199 36.0893C18.2835 36.1258 18.247 36.1623 18.247 36.1988C18.2106 36.2352 18.2106 36.3082 18.2106 36.3812C18.2106 36.4907 18.247 36.5637 18.3199 36.6366C18.3563 36.6731 18.4656 36.7096 18.6112 36.7096Z" fill="white"/>
<path d="M24.1473 34.9216C24.0016 34.9216 23.8923 34.9581 23.7831 34.9946C23.6738 35.0311 23.601 35.104 23.5281 35.177C23.4553 35.25 23.3824 35.3595 23.346 35.5054C23.3096 35.6514 23.2732 35.8339 23.2367 36.0163C23.2003 36.2353 23.1639 36.4542 23.1275 36.7096C23.0911 36.9651 23.0546 37.2205 23.0182 37.5124H21.5249L22.1077 33.5714H23.4917L23.4189 34.1188C23.5645 33.9363 23.7466 33.7539 23.9287 33.6079C24.1109 33.462 24.3294 33.389 24.5479 33.389C24.5843 33.389 24.6208 33.389 24.6572 33.389C24.6936 33.389 24.73 33.389 24.73 33.389L24.5115 34.8851C24.4386 34.8851 24.4022 34.8851 24.293 34.8851C24.2565 34.9216 24.1837 34.9216 24.1473 34.9216Z" fill="white"/>
<path d="M27.2431 34.4107L27.0246 36.0163C27.0246 36.1623 27.061 36.2717 27.1702 36.3082C27.2431 36.3447 27.4252 36.3447 27.6437 36.3447L27.4616 37.4759C27.4252 37.4759 27.3523 37.4759 27.2067 37.5124C27.061 37.5124 26.8424 37.5489 26.6239 37.5489C26.2233 37.5489 25.9319 37.4394 25.7498 37.257C25.5677 37.0745 25.4949 36.8556 25.4949 36.5637C25.4949 36.3812 25.5313 36.0893 25.6041 35.6149C25.677 35.1405 25.7498 34.7756 25.7862 34.3742H25.2399L25.3856 33.4984H25.9319L26.114 32.2943H27.5709L27.3888 33.4984H27.9715L27.8258 34.3742H27.2431V34.4107Z" fill="white"/>
<path d="M30.3389 33.5349C30.266 33.9728 30.1932 34.4107 30.1204 34.9216C30.0475 35.4324 30.0111 35.7609 30.0111 35.9068C30.0111 36.0528 30.0475 36.1623 30.1204 36.2717C30.1932 36.3812 30.3025 36.4177 30.4846 36.4177C30.5938 36.4177 30.7031 36.3812 30.7759 36.3812C30.8488 36.3447 30.8852 36.3082 30.9216 36.2717C30.9945 36.1988 31.0309 36.0893 31.1037 35.9798C31.1401 35.8703 31.1766 35.6879 31.213 35.5054C31.2494 35.323 31.2858 35.0311 31.3223 34.7391C31.3587 34.4107 31.4315 34.0093 31.5044 33.5349H33.034L32.4513 37.4759H31.0673L31.1037 36.9651C30.9945 37.111 30.8488 37.257 30.5938 37.3665C30.3389 37.5124 30.0839 37.5854 29.7561 37.6219C29.3919 37.6219 29.0641 37.5124 28.8456 37.257C28.5907 37.038 28.4814 36.7096 28.445 36.2717C28.445 35.9798 28.5178 35.5784 28.5907 34.9946C28.6635 34.4107 28.7363 33.9363 28.8092 33.4984H30.3389V33.5349Z" fill="white"/>
<path d="M36.3848 33.4255C36.8947 33.4255 37.2953 33.6079 37.5503 33.9363C37.8052 34.2647 37.9509 34.7026 37.9509 35.25C37.9509 35.9433 37.7688 36.5272 37.441 36.9651C37.1132 37.4029 36.6762 37.6219 36.1298 37.6584C35.8021 37.6584 35.5107 37.5854 35.3286 37.4759C35.1101 37.3665 34.9644 37.2205 34.8915 37.038L34.6002 39.045H33.1069L33.8717 33.5714H35.2557L35.1829 34.0458C35.2922 33.8998 35.4378 33.7539 35.62 33.6444C35.8385 33.4984 36.0934 33.4255 36.3848 33.4255ZM35.6928 36.4177C35.9477 36.4177 36.1299 36.2717 36.2391 36.0528C36.3484 35.8338 36.4212 35.5419 36.4212 35.2135C36.4212 34.9216 36.3484 34.7391 36.2391 34.6297C36.1299 34.5567 35.9842 34.4837 35.8749 34.5202C35.5835 34.5202 35.4014 34.6661 35.2557 34.8851C35.1101 35.104 35.0736 35.396 35.0736 35.7244C35.0736 35.9068 35.1101 36.0893 35.2193 36.1988C35.3286 36.3447 35.4743 36.4177 35.6928 36.4177Z" fill="white"/>
<path d="M3.20507 41.4169L2.62233 45.3944H0.91053L1.49327 41.4169H0L0.218527 40.0668H4.88044L4.66192 41.4169H3.20507Z" fill="white"/>
<path d="M8.77751 43.7888H5.90023C5.90023 44.0443 5.93666 44.2267 6.04592 44.3727C6.15518 44.5186 6.33729 44.5916 6.59224 44.5916C6.77434 44.5916 6.88361 44.5551 6.99287 44.5186C7.10213 44.4457 7.13856 44.3727 7.17498 44.2997H8.63183C8.55898 44.6281 8.34046 44.92 7.97624 45.1755C7.61203 45.4309 7.13856 45.5769 6.48297 45.5769C5.71813 45.5404 5.17181 45.3579 4.84402 44.993C4.51623 44.6281 4.33412 44.1902 4.33412 43.6793C4.33412 43.0225 4.55265 42.4752 4.95328 42.0373C5.35392 41.5994 5.90023 41.3804 6.62866 41.3439C7.42993 41.3439 8.01266 41.5629 8.34046 41.9643C8.66825 42.3657 8.81393 42.8401 8.81393 43.4239C8.81393 43.5334 8.81393 43.6064 8.81393 43.6793C8.77751 43.7158 8.77751 43.7523 8.77751 43.7888ZM5.97308 42.986H7.35708C7.35708 42.8036 7.32066 42.6211 7.2114 42.4752C7.10213 42.3292 6.95645 42.2562 6.73792 42.2562C6.48297 42.2562 6.26445 42.3657 6.15518 42.5481C6.0095 42.7306 5.97308 42.8766 5.97308 42.986Z" fill="white"/>
<path d="M12.1283 42.9495C12.1283 42.8036 12.0918 42.6576 12.019 42.5481C11.9462 42.4387 11.8005 42.4022 11.5819 42.3657C11.2906 42.3657 11.1085 42.5116 10.9992 42.7671C10.8899 43.0225 10.8171 43.3144 10.8171 43.6429C10.8171 43.8983 10.8535 44.1172 10.9628 44.2632C11.072 44.4092 11.2177 44.4821 11.4363 44.4821C11.6184 44.4821 11.7276 44.4092 11.8733 44.2997C11.9826 44.1902 12.0554 44.0443 12.0918 43.8618H13.5851C13.5487 44.2632 13.3666 44.6281 13.0388 44.9565C12.711 45.2849 12.1647 45.5039 11.4363 45.5039C10.5986 45.4674 10.0523 45.2485 9.76088 44.8106C9.46951 44.4092 9.32383 44.0078 9.36025 43.6064C9.36025 42.986 9.54236 42.4752 9.90657 42.0008C10.2708 41.5264 10.8535 41.3075 11.6548 41.271C12.4196 41.3075 12.966 41.4534 13.2573 41.7818C13.5487 42.1103 13.7308 42.4752 13.6944 42.8766H12.1283V42.9495Z" fill="white"/>
<path d="M17.1908 41.3439C17.6643 41.3439 17.9921 41.4899 18.1742 41.7453C18.3927 42.0008 18.4656 42.2927 18.4656 42.6211C18.4656 42.8401 18.4291 43.1685 18.3563 43.6064C18.2834 44.0443 18.2106 44.6281 18.1013 45.3944H16.5717C16.6081 45.0295 16.6809 44.5916 16.7538 44.0443C16.8266 43.4969 16.863 43.132 16.863 42.986C16.863 42.8401 16.8266 42.7306 16.7538 42.6576C16.6809 42.5846 16.5717 42.5116 16.3895 42.5116C16.2803 42.5116 16.171 42.5481 16.0982 42.5846C16.0253 42.6211 15.9889 42.6576 15.9525 42.6941C15.8796 42.7671 15.8432 42.8766 15.7704 42.986C15.734 43.132 15.6975 43.3144 15.6611 43.5334C15.6247 43.7523 15.5883 44.0078 15.5519 44.2997C15.5154 44.5916 15.479 44.9565 15.4062 45.3579H13.9129L14.6777 39.9938H16.2074L15.9161 41.8548C16.0253 41.7089 16.2074 41.5994 16.3895 41.4534C16.6445 41.4169 16.8994 41.3439 17.1908 41.3439Z" fill="white"/>
<path d="M22.4719 41.3439C22.8361 41.3439 23.1275 41.4534 23.3824 41.6724C23.6374 41.8913 23.7466 42.2197 23.7831 42.6211C23.7831 42.8766 23.7466 43.205 23.6738 43.6793C23.601 44.1537 23.5281 44.7011 23.4553 45.3944H21.9256C21.9984 44.7376 22.0713 44.1902 22.1441 43.7888C22.217 43.3509 22.2534 43.0955 22.2534 42.986C22.2534 42.8766 22.217 42.7671 22.1441 42.6576C22.0713 42.5846 21.962 42.5116 21.7799 42.5116C21.7071 42.5116 21.5978 42.5116 21.5249 42.5481C21.4521 42.5846 21.3793 42.6211 21.3428 42.6576C21.27 42.7306 21.1972 42.8401 21.1607 42.986C21.1243 43.132 21.0879 43.3144 21.0515 43.5334C21.0151 43.7523 20.9786 44.0078 20.9422 44.3362C20.9058 44.6281 20.8694 44.993 20.7965 45.3579H19.3033L19.886 41.4534H21.27L21.1972 41.9643C21.3428 41.8183 21.5249 41.6724 21.7435 41.5264C21.9256 41.4169 22.1805 41.3439 22.4719 41.3439Z" fill="white"/>
<path d="M26.6968 41.3074C27.3523 41.3074 27.8987 41.4899 28.2264 41.8548C28.5907 42.1832 28.7728 42.6576 28.7728 43.2415C28.7728 43.8983 28.5907 44.4456 28.19 44.8835C27.7894 45.3214 27.2067 45.5404 26.4054 45.5404C25.6041 45.5039 25.0214 45.2849 24.73 44.8835C24.4386 44.4821 24.293 44.0443 24.293 43.6429C24.293 43.0225 24.4751 42.4752 24.8757 42.0373C25.3127 41.5629 25.8955 41.3439 26.6968 41.3074ZM27.2431 43.205C27.2431 42.986 27.2067 42.8036 27.1338 42.6211C27.061 42.4752 26.8789 42.3657 26.6603 42.3657C26.369 42.3657 26.1869 42.5116 26.0412 42.7671C25.9319 43.0225 25.8591 43.3509 25.8591 43.7158C25.8591 43.9348 25.8955 44.0807 25.9683 44.2267C26.0412 44.3727 26.2233 44.4457 26.4418 44.4457C26.7332 44.4457 26.9517 44.2997 27.061 44.0443C27.2067 43.7888 27.2431 43.4969 27.2431 43.205Z" fill="white"/>
<path d="M31.3951 40.0668L30.6667 45.4309H29.137L29.8654 40.0668H31.3951Z" fill="white"/>
<path d="M33.9446 41.3074C34.6002 41.3074 35.1465 41.4899 35.4743 41.8548C35.8385 42.1832 36.0206 42.6576 36.0206 43.2415C36.0206 43.8983 35.8385 44.4456 35.4378 44.8835C35.0372 45.3214 34.4545 45.5404 33.6532 45.5404C32.8519 45.5039 32.2692 45.2849 31.9778 44.8835C31.6865 44.4821 31.5408 44.0443 31.5408 43.6429C31.5408 43.0225 31.7229 42.4752 32.1235 42.0373C32.5606 41.5629 33.1433 41.3439 33.9446 41.3074ZM34.4909 43.205C34.4909 42.986 34.4545 42.8036 34.3816 42.6211C34.3088 42.4752 34.1267 42.3657 33.9082 42.3657C33.6168 42.3657 33.4347 42.5116 33.289 42.7671C33.1797 43.0225 33.1069 43.3509 33.1069 43.7158C33.1069 43.9348 33.1433 44.0807 33.2161 44.2267C33.289 44.3727 33.4711 44.4457 33.6896 44.4457C33.981 44.4457 34.1995 44.2997 34.3088 44.0443C34.4545 43.7888 34.4909 43.4969 34.4909 43.205Z" fill="white"/>
<path d="M41.0467 41.4899C40.9374 42.2197 40.8282 42.8401 40.7553 43.3874C40.6825 43.9348 40.6097 44.4092 40.5732 44.8106C40.5004 45.212 40.4275 45.5404 40.3547 45.8323C40.2819 46.0877 40.1726 46.3067 39.9905 46.4891C39.9177 46.5986 39.7355 46.7081 39.4442 46.854C39.1892 46.9635 38.7522 47.0365 38.1694 47.073C37.5139 47.073 37.0404 46.927 36.749 46.7081C36.4576 46.4891 36.312 46.2337 36.312 45.9418H37.8052C37.8416 46.0148 37.8781 46.0877 37.9509 46.1242C38.0237 46.1607 38.133 46.1972 38.2787 46.1972C38.5336 46.1972 38.6793 46.0877 38.7886 45.9053C38.8979 45.7228 38.9707 45.3944 39.0071 44.993C38.8614 45.139 38.7158 45.2484 38.5701 45.3214C38.4244 45.3944 38.2059 45.4309 38.0237 45.4309C37.4774 45.4309 37.0768 45.2484 36.8218 44.9565C36.5669 44.6281 36.4576 44.2267 36.4576 43.7158C36.4576 43.205 36.6033 42.6941 36.8947 42.1832C37.1861 41.6724 37.6595 41.4169 38.3151 41.3804C38.6429 41.3804 38.9343 41.4534 39.1164 41.5994C39.3349 41.7453 39.4806 41.8913 39.5899 42.0738L39.6627 41.5264H41.0467V41.4899ZM39.3713 43.205C39.3713 43.0225 39.3349 42.8401 39.2256 42.6941C39.1164 42.5481 38.9707 42.4752 38.7158 42.4752C38.4608 42.4752 38.2787 42.5846 38.1694 42.8036C38.0602 43.0225 37.9873 43.2415 37.9873 43.5334C37.9873 43.7158 38.0237 43.8983 38.0966 44.0443C38.1694 44.1902 38.3515 44.2632 38.6065 44.2632C38.8614 44.2632 39.0435 44.1537 39.1528 43.9348C39.2985 43.7158 39.3713 43.4969 39.3713 43.205Z" fill="white"/>
<path d="M46 41.4534C45.5994 42.2562 45.2351 42.9495 44.9438 43.5699C44.6524 44.1537 44.4339 44.6646 44.2154 45.066C44.0332 45.4674 43.8511 45.7958 43.7419 46.0512C43.5962 46.3067 43.4869 46.4891 43.3777 46.5986C43.2684 46.7081 43.1227 46.8175 42.977 46.8905C42.7949 46.9635 42.54 47.0365 42.2122 47.0365C42.0665 47.0365 41.8844 47.0365 41.7387 47C41.5566 47 41.4473 46.9635 41.4109 46.9635L41.5566 45.8688C41.593 45.8688 41.6294 45.8688 41.7387 45.8688C41.8116 45.8688 41.9208 45.9053 41.9937 45.9053C42.1393 45.9053 42.285 45.8688 42.3214 45.7958C42.3943 45.7228 42.4307 45.6134 42.4307 45.4309C42.4307 45.3579 42.3943 45.1755 42.3579 44.8835C42.3215 44.6281 42.2486 44.2997 42.1393 43.8983C42.0665 43.5334 41.9572 43.0955 41.8844 42.6941C41.8116 42.2562 41.7023 41.8548 41.6294 41.4169H43.0863L43.4141 43.8983L44.4339 41.4169H46V41.4534Z" fill="white"/>
</g>
<defs>
<clipPath id="clip0">
<rect width="46" height="47" fill="white"/>
</clipPath>
</defs>
</svg>
